<svg fill="#fff" viewBox="0 0 32 32" xmlns="http://www.w3.org/2000/svg" stroke="#fff"><path d="M31.168 23.58a7.158 7.158 0 00-5.018-6.273l-.051-.013a3.741 3.741 0 00-1.107-3.505l-.002-.002a5.002 5.002 0 00-3.548-1.47c-.833 0-1.619.203-2.31.563l.028-.013a7.39 7.39 0 00-5.81-2.316l.019-.001a9.902 9.902 0 00-8.24 4.548l-.024.039a5.552 5.552 0 00-.734 2.777c0 .549.079 1.08.226 1.582l-.01-.04C2.306 20.459.743 22.699.743 25.304c0 .108.003.216.008.323l-.001-.015-.001.133a6.25 6.25 0 001.192 3.682l-.013-.018a4.68 4.68 0 003.724 1.843l.107-.001h-.005l20.349-.012a5.647 5.647 0 004.249-2.827l.015-.028a7.616 7.616 0 00.896-3.607 7.8 7.8 0 00-.099-1.24l.006.044zm-5.236 5.17H5.753a2.151 2.151 0 01-1.832-.85l-.004-.005a3.762 3.762 0 01-.669-2.152l.002-.138v.007c0-1.588.829-3.949 3.114-3.949a1.25 1.25 0 001.066-1.904l.003.005a3.198 3.198 0 01-.562-1.82c0-.59.158-1.144.435-1.62l-.008.015c1.355-1.972 3.587-3.258 6.12-3.291h.005l.142-.001a4.8 4.8 0 014.259 2.184l.011.019c.196.321.526.544.91.591l.006.001a1.222 1.222 0 001.033-.352h0a2.406 2.406 0 011.687-.687c.686 0 1.305.286 1.744.745l.001.001a1.262 1.262 0 01-.043 2.014l-.004.003a1.25 1.25 0 001.057 2.125l-.007.001c2.615-.355 4.16 1.941 4.473 4.229.221 1.621-.146 4.463-2.76 4.832zM2.78 17.25a1.25 1.25 0 00.986-2.017l.002.003a3.564 3.564 0 01-.521-1.865c0-.594.144-1.154.399-1.648l-.009.02a2.178 2.178 0 011.982-1.345h.001a1.25 1.25 0 001.066-1.904l.003.005A2.433 2.433 0 016.251 7.1c0-.453.123-.877.337-1.241l-.006.011a6.02 6.02 0 014.897-2.619h.004a3.751 3.751 0 013.462 1.708l.009.015a1.251 1.251 0 001.949.239h0a1.621 1.621 0 011.327-.507h-.006c.48.037.907.242 1.227.555h0c.18.163.301.387.332.64v.005c-.017.293-.157.55-.367.724l-.002.001a1.245 1.245 0 00-.239 1.448l-.003-.007a1.266 1.266 0 001.297.685l-.006.001a2.554 2.554 0 011.995.509l-.006-.004a4.332 4.332 0 011.487 2.873l.001.017a1.25 1.25 0 102.48-.314l.001.006a6.782 6.782 0 00-2.432-4.555l-.012-.009a4.969 4.969 0 00-1.697-.862l-.035-.009a3.018 3.018 0 00.033-.619v.007a3.488 3.488 0 00-1.052-2.296l-.001-.001a4.458 4.458 0 00-2.811-1.288l-.015-.001a4.137 4.137 0 00-2.143.422l.024-.011A6.466 6.466 0 0011.414.752l.014-.001a8.436 8.436 0 00-7.017 3.882l-.02.034a4.819 4.819 0 00-.637 2.408c0 .408.05.804.145 1.183l-.007-.034a4.837 4.837 0 00-2.486 2.386l-.012.029a5.934 5.934 0 00-.653 2.727c0 1.269.393 2.447 1.064 3.417l-.013-.02c.231.296.587.485.988.485h.002z"/></svg>